<svg xmlns="http://www.w3.org/2000/svg" viewBox="0 0 335.6 50"><defs><style>.cls-1{font-size:36px;font-family:Montserrat-Bold, Montserrat;font-weight:700;letter-spacing:-0.02em;}.cls-1,.cls-14{fill:#004282;}.cls-2{letter-spacing:-0.02em;}.cls-3{letter-spacing:-0.02em;}.cls-4{letter-spacing:-0.02em;}.cls-5{letter-spacing:-0.02em;}.cls-6{letter-spacing:-0.02em;}.cls-7{letter-spacing:0em;}.cls-8{font-size:20px;fill:#a7a9ac;font-family:Roboto-Regular, Roboto;letter-spacing:0.2em;}.cls-9{letter-spacing:0.17em;}.cls-10{letter-spacing:0.19em;}.cls-11{letter-spacing:0.14em;}.cls-12{letter-spacing:0.16em;}.cls-13{fill:#00b3f0;}.cls-15{fill:#007dc5;}.cls-16{fill:#fff;}</style></defs><g id="Logo"><text class="cls-1" transform="translate(53.02 28.61)">R<tspan class="cls-2" x="25.56" y="0">as</tspan><tspan class="cls-3" x="65.45" y="0">c</tspan><tspan class="cls-4" x="85.86" y="0">h </tspan><tspan class="cls-5" x="119.48" y="0">A</tspan><tspan class="cls-6" x="146.16" y="0">dviso</tspan><tspan class="cls-7" x="242.53" y="0">r</tspan><tspan class="cls-6" x="257.86" y="0">y</tspan></text><text class="cls-8" transform="translate(56 46.68)">C<tspan class="cls-9" x="17.02" y="0">L</tspan><tspan x="31.14" y="0">OUD &amp; </tspan><tspan class="cls-10" x="117.31" y="0">D</tspan><tspan class="cls-11" x="134.22" y="0">A</tspan><tspan class="cls-12" x="150.01" y="0">T</tspan><tspan x="165.17" y="0">A &amp; AI</tspan></text><path class="cls-13" d="M8,12.25a2.2,2.2,0,1,1-.8,3A2.2,2.2,0,0,1,8,12.25ZM26,4.42a2.2,2.2,0,1,0,.81-3A2.2,2.2,0,0,0,26,4.42ZM19.71,8a2.2,2.2,0,0,0,3.81-2.2A2.2,2.2,0,1,0,19.71,8Zm-6.26,3.61a2.2,2.2,0,1,0,.81-3A2.2,2.2,0,0,0,13.45,11.64ZM36,8a2.2,2.2,0,1,0-3,.8A2.2,2.2,0,0,0,36,8Zm6.26,3.61a2.2,2.2,0,1,0-3,.8A2.19,2.19,0,0,0,42.3,11.64Zm-17.14-1a1.31,1.31,0,0,1-.65,1.21l-.1.06a1.32,1.32,0,0,1-1.37,0,2.72,2.72,0,0,0-4.14,2.39,1.34,1.34,0,0,1-.65,1.21l-.1.06a1.29,1.29,0,0,1-1.34,0,2.72,2.72,0,0,0-3.95,3.37,2.71,2.71,0,0,0,5.2-1.09,1.35,1.35,0,0,1,.69-1.15l.16-.09a1.34,1.34,0,0,1,1.34,0,2.72,2.72,0,0,0,4.08-2.35A1.33,1.33,0,0,1,25,13l.19-.11a1.29,1.29,0,0,1,1.29,0,2.7,2.7,0,0,0,2.6.08h0l.12-.06.05,0a1.32,1.32,0,0,1,1.37,0l.09,0a1.39,1.39,0,0,1,.69,1.21,2.71,2.71,0,0,0,1.38,2.39,2.74,2.74,0,0,0,3.55-.81,2.72,2.72,0,0,0-3.58-3.91,1.42,1.42,0,0,1-1.41,0l-.08-.05a1.34,1.34,0,0,1-.69-1.19v-.06a2.71,2.71,0,0,0-4.07-2.34A2.73,2.73,0,0,0,25.16,10.62Zm10.68,9.79-6.69-3.87a2.54,2.54,0,0,0-2.53,0l-6.69,3.87,8,4.59Z"/><path class="cls-14" d="M26.78,48.59a2.2,2.2,0,1,1,3-.81A2.2,2.2,0,0,1,26.78,48.59ZM11,37a2.2,2.2,0,1,0-3,.8A2.19,2.19,0,0,0,11,37Zm6.26,3.61a2.2,2.2,0,1,0-3,.8A2.19,2.19,0,0,0,17.27,40.56Zm6.25,3.61a2.2,2.2,0,1,0-3,.81A2.19,2.19,0,0,0,23.52,44.17ZM9.1,26.41a2.2,2.2,0,1,0,2.2,2.2A2.21,2.21,0,0,0,9.1,26.41Zm0-7.22a2.2,2.2,0,1,0,2.2,2.2A2.2,2.2,0,0,0,9.1,19.19Zm7.69,15.35a1.34,1.34,0,0,1,1.38,0l.09,0a1.33,1.33,0,0,1,.65,1.21,2.73,2.73,0,0,0,1.36,2.43,2.69,2.69,0,0,0,2.78,0,1.36,1.36,0,0,1,1.38,0l.09.06a1.29,1.29,0,0,1,.66,1.17,2.72,2.72,0,0,0,4.89,1.74,2.72,2.72,0,0,0-3.54-4,1.34,1.34,0,0,1-1.34,0L25,37a1.35,1.35,0,0,1-.69-1.15,2.71,2.71,0,0,0-4.07-2.35,1.36,1.36,0,0,1-1.35,0l-.19-.11a1.29,1.29,0,0,1-.65-1.12A2.74,2.74,0,0,0,16.85,30h0l-.11-.07,0,0A1.36,1.36,0,0,1,16,28.67v-.11a1.38,1.38,0,0,1,.71-1.2,2.71,2.71,0,1,0-4.05-2.47A2.69,2.69,0,0,0,14,27.35a1.43,1.43,0,0,1,.73,1.22v.09a1.35,1.35,0,0,1-.69,1.19l-.05,0a2.71,2.71,0,1,0,2.79,4.65ZM27.88,25l-7.95-4.59h0v7.73a2.52,2.52,0,0,0,1.26,2.18l6.69,3.87h0Z"/><path class="cls-15" d="M35.84,28.14a2.52,2.52,0,0,1-1.26,2.18l-6.69,3.87h0V25l8-4.59h0ZM46.67,12a2.2,2.2,0,1,0,2.2,2.2A2.19,2.19,0,0,0,46.67,12Zm2.2,23.86a2.2,2.2,0,1,1-2.2-2.19A2.2,2.2,0,0,1,48.87,35.83Zm0-7.22a2.2,2.2,0,1,1-2.2-2.2A2.2,2.2,0,0,1,48.87,28.61Zm0-7.22a2.2,2.2,0,1,1-2.2-2.2A2.21,2.21,0,0,1,48.87,21.39ZM39.3,37.56a2.2,2.2,0,1,1-.8,3A2.2,2.2,0,0,1,39.3,37.56Zm-6.25,3.61A2.2,2.2,0,0,1,35.25,45a2.2,2.2,0,1,1-2.2-3.81Zm10.07-8.94a2.72,2.72,0,0,1-2.85,2.71,2.63,2.63,0,0,1-1.21-.36l-.05,0a1.39,1.39,0,0,0-1.38,0l-.08.05a1.42,1.42,0,0,0-.69,1.24A2.72,2.72,0,0,1,31.68,37a2.71,2.71,0,0,1,3.84-3.48,1.38,1.38,0,0,0,1.39,0l.09,0a1.37,1.37,0,0,0,.69-1.19v-.19h0a2.72,2.72,0,0,1,1.37-2.21,1.27,1.27,0,0,0,.64-1.13v-.22a1.33,1.33,0,0,0-.65-1.17,2.71,2.71,0,0,1,0-4.7,1.34,1.34,0,0,0,.65-1.18v-.18a1.34,1.34,0,0,0-.65-1.18,2.71,2.71,0,1,1,2.61.06A1.29,1.29,0,0,0,41,21.32v.12a1.34,1.34,0,0,0,.72,1.17,2.71,2.71,0,0,1,0,4.78A1.32,1.32,0,0,0,41,28.56v.11a1.34,1.34,0,0,0,.72,1.17A2.72,2.72,0,0,1,43.12,32.23Z"/><polygon class="cls-16" points="27.96 35.31 19.32 30.17 19.18 20.11 27.69 15.2 36.34 20.34 36.47 30.4 27.96 35.31"/></g></svg>