<svg xmlns="http://www.w3.org/2000/svg" xmlns:xlink="http://www.w3.org/1999/xlink" viewBox="0 0 86 46" fill="#fff" fill-rule="evenodd" stroke="#000" stroke-linecap="round" stroke-linejoin="round"><use xlink:href="#A" x=".5" y=".5"/><symbol id="A" overflow="visible"><g stroke="none"><path d="M77.38 22.198l-.146-.3-3.186-6.04c-.114-.153-.09-.37.053-.494l5.04-5.922a.55.55 0 0 0 .135-.266l-1.472.385-6.11 1.635c-.19.05-.276-.005-.37-.162l-3.483-5.8a.79.79 0 0 0-.253-.282l-.29 1.544-.968 5.454-.1.6c-.016.188-.112.257-.282.31l-7.196 2.275c-.096.034-.208.077-.32.18l5.915 2.35-.173.137-3.68 2.38c-.146.096-.263.11-.427.035l-4.403-1.962c-.66-.294-1.25-.685-1.712-1.25-1.044-1.276-.837-2.728.553-3.614a6.56 6.56 0 0 1 1.486-.676l7.07-2.246a.4.4 0 0 0 .327-.365l.968-5.453c.175-.962.27-1.968.74-2.86.192-.342.4-.677.658-.965.936-1.04 2.243-1.08 3.232-.1.334.334.62.728.87 1.133l3.232 5.36c.034.09.104.164.194.2s.19.034.28-.008l7.887-2.095c.543-.144 1.093-.196 1.65-.09 1.214.227 1.744 1.15 1.333 2.323-.187.534-.5.985-.87 1.41l-5.493 6.49c-.15.176-.154.304-.05.5l3.284 6.226c.262.497.462 1.013.467 1.583.013 1.298-.936 2.36-2.226 2.55-.72.096-1.395-.048-2.07-.257l-4.953-1.508a.28.28 0 0 1-.239-.271l-.598-3.486c-.006-.032.004-.067.01-.138l5.69 1.57" fill="#e25a1c"/><g fill="#3c3a3e"><path d="M74.164 39.14l-4.463-.004c-.17.015-.335-.073-.417-.224l-5.513-8.35-1.125 8.554H58.75l.135-1.112 2.24-17.024c.013-.09.06-.174.135-.23l4.04-2.597c.02-.012.048-.014.115-.034L64.2 27.377l.048.033 6.375-7.067.627 3.62c.033.177-.014.288-.133.41l-4.084 4.292-.192.192.125.198 7.04 9.878c.042.06.104.096.157.16v.052m-46.167-8.558c-.06-.304-.102-.75-.237-1.166-.652-2.012-2.717-3.116-4.854-2.62-2.345.545-4.02 2.39-4.263 4.78-.18 1.77.773 3.475 2.546 4.115 1.427.516 2.802.3 4.078-.465 1.693-1.015 2.61-2.522 2.732-4.646zM17.7 38.058l-.334 2.5-.42 3.257c-.016.127-.055.192-.2.192l-3.2-.005c-.024 0-.048-.014-.096-.03l.195-1.54.712-5.4.842-6.17c.62-3.62 3.693-6.733 7.298-7.518 2.1-.452 4.1-.242 5.915.933 1.82 1.173 2.863 2.885 3.1 5.016.337 3.027-.777 5.54-2.928 7.618-1.41 1.366-3.1 2.23-5.05 2.525-2.007.303-3.895-.032-5.578-1.216-.062-.043-.13-.08-.236-.148"/><path d="M15.956 20.85l-3.518 2.62-.55-.864c-.504-.704-1.13-1.23-2.04-1.295a2.28 2.28 0 0 0-1.92.755 1.34 1.34 0 0 0-.09 1.773 25.32 25.32 0 0 0 1.524 1.784l2.67 2.826c.794.87 1.427 1.85 1.623 3.04.233 1.416-.05 2.764-.72 4.01-1.25 2.303-3.19 3.64-5.768 4.057-1.138.185-2.273.148-3.384-.18-1.474-.433-2.5-1.4-3.16-2.763-.233-.48-.412-.99-.623-1.508l3.816-2.042.115.277c.216.433.385.895.673 1.295.796 1.183 2.083 1.545 3.39.96.34-.154.654-.358.933-.606.84-.746.998-1.786.385-2.726-.358-.54-.805-1.023-1.25-1.507L4.92 27.29c-.702-.81-1.177-1.757-1.327-2.843-.163-1.186.072-2.306.7-3.304 1.534-2.482 3.765-3.773 6.714-3.666 1.68.06 3.02.846 4.06 2.154l.91 1.207m28.48 13.337l-.572 4.336c-.01.072-.067.17-.128.198-2.903 1.345-6.726 1.157-9.1-1.55-1.28-1.454-1.828-3.18-1.738-5.102.186-4.446 3.872-8.327 8.272-8.87 2.576-.317 4.834.38 6.58 2.38 1.19 1.363 1.738 2.982 1.657 4.787-.054 1.187-.24 2.368-.388 3.56l-.66 5.015c-.008.06-.02.118-.034.192h-3.463L45 37.985l.748-5.792c.137-1.204.05-2.4-.5-3.515-.577-1.186-1.568-1.813-2.86-1.95-2.674-.283-5.22 1.575-5.8 4.207-.377 1.737.217 3.403 1.6 4.323 1.348.897 2.793.9 4.263.317.745-.294 1.38-.762 1.984-1.392M59.07 23.527l-.474 3.6c-.734 0-1.454-.004-2.174.002a1.37 1.37 0 0 0-1.291.926c-.067.214-.094.442-.123.673l-1.09 8.296-.272 2.103H50.03l.198-1.56.708-5.375.63-4.648c.325-2.07 2.385-3.91 4.474-4l3.028-.008"/><g fill-rule="nonzero"><use xlink:href="#C"/><path d="M27.17 16.613h-.53l-.18 1.005h.53c.32 0 .577-.212.577-.608a.36.36 0 0 0-.397-.397zm-1.286-.866h1.395c.73 0 1.25.435 1.25 1.183 0 .94-.666 1.575-1.613 1.575h-.6l-.282 1.594h-.908l.768-4.352"/><use xlink:href="#C" x="10.811"/><path d="M38.54 19.935c-.31.144-.645.22-.986.224-1.15 0-1.876-.866-1.876-1.946 0-1.382 1.154-2.547 2.55-2.547a1.88 1.88 0 0 1 .914.224l-.128 1.044c-.192-.212-.5-.36-.883-.36-.794 0-1.498.718-1.498 1.54 0 .635.396 1.125 1.024 1.125.365-.001.718-.125 1.004-.352l-.122 1.037m5.555-1.6H42.2l-.308 1.753h-.908l.767-4.352h.91l-.308 1.73h1.895l.308-1.73h.91l-.767 4.352h-.91l.308-1.753m3.332 1.754l.768-4.352H50.6l-.154.866H48.95l-.154.845h1.382l-.154.877h-1.392l-.154.877h1.504l-.154.877h-2.412"/></g></g></g></symbol><defs ><path id="C" d="M20.797 18.285h.896l-.212-1.347zm1.037.877h-1.49l-.474.928h-1.056l2.33-4.362h1.018l.794 4.352h-.98l-.14-.928"/></defs></svg>